<?xml version="1.0" encoding="utf-8"?>
<svg xmlns="http://www.w3.org/2000/svg" xmlns:xlink="http://www.w3.org/1999/xlink" width="600" height="400" viewBox="0 0 2400 1600">
<defs>
  <clipPath id="clip530">
    <rect x="0" y="0" width="2400" height="1600"/>
  </clipPath>
</defs>
<path clip-path="url(#clip530)" d="M0 1600 L2400 1600 L2400 0 L0 0  Z" fill="#ffffff" fill-rule="evenodd" fill-opacity="1"/>
<defs>
  <clipPath id="clip531">
    <rect x="480" y="0" width="1681" height="1600"/>
  </clipPath>
</defs>
<path clip-path="url(#clip530)" d="M193.936 1486.45 L2352.76 1486.45 L2352.76 47.2441 L193.936 47.2441  Z" fill="#ffffff" fill-rule="evenodd" fill-opacity="1"/>
<defs>
  <clipPath id="clip532">
    <rect x="193" y="47" width="2160" height="1440"/>
  </clipPath>
</defs>
<polyline clip-path="url(#clip532)" style="stroke:#000000; stroke-linecap:round; stroke-linejoin:round; stroke-width:2; stroke-opacity:0.1; fill:none" points="525.454,1486.45 525.454,47.2441 "/>
<polyline clip-path="url(#clip532)" style="stroke:#000000; stroke-linecap:round; stroke-linejoin:round; stroke-width:2; stroke-opacity:0.1; fill:none" points="899.4,1486.45 899.4,47.2441 "/>
<polyline clip-path="url(#clip532)" style="stroke:#000000; stroke-linecap:round; stroke-linejoin:round; stroke-width:2; stroke-opacity:0.1; fill:none" points="1273.35,1486.45 1273.35,47.2441 "/>
<polyline clip-path="url(#clip532)" style="stroke:#000000; stroke-linecap:round; stroke-linejoin:round; stroke-width:2; stroke-opacity:0.1; fill:none" points="1647.29,1486.45 1647.29,47.2441 "/>
<polyline clip-path="url(#clip532)" style="stroke:#000000; stroke-linecap:round; stroke-linejoin:round; stroke-width:2; stroke-opacity:0.1; fill:none" points="2021.24,1486.45 2021.24,47.2441 "/>
<polyline clip-path="url(#clip532)" style="stroke:#000000; stroke-linecap:round; stroke-linejoin:round; stroke-width:2; stroke-opacity:0.1; fill:none" points="193.936,1327.76 2352.76,1327.76 "/>
<polyline clip-path="url(#clip532)" style="stroke:#000000; stroke-linecap:round; stroke-linejoin:round; stroke-width:2; stroke-opacity:0.1; fill:none" points="193.936,1140.79 2352.76,1140.79 "/>
<polyline clip-path="url(#clip532)" style="stroke:#000000; stroke-linecap:round; stroke-linejoin:round; stroke-width:2; stroke-opacity:0.1; fill:none" points="193.936,953.819 2352.76,953.819 "/>
<polyline clip-path="url(#clip532)" style="stroke:#000000; stroke-linecap:round; stroke-linejoin:round; stroke-width:2; stroke-opacity:0.1; fill:none" points="193.936,766.846 2352.76,766.846 "/>
<polyline clip-path="url(#clip532)" style="stroke:#000000; stroke-linecap:round; stroke-linejoin:round; stroke-width:2; stroke-opacity:0.1; fill:none" points="193.936,579.873 2352.76,579.873 "/>
<polyline clip-path="url(#clip532)" style="stroke:#000000; stroke-linecap:round; stroke-linejoin:round; stroke-width:2; stroke-opacity:0.1; fill:none" points="193.936,392.9 2352.76,392.9 "/>
<polyline clip-path="url(#clip532)" style="stroke:#000000; stroke-linecap:round; stroke-linejoin:round; stroke-width:2; stroke-opacity:0.1; fill:none" points="193.936,205.927 2352.76,205.927 "/>
<polyline clip-path="url(#clip530)" style="stroke:#000000; stroke-linecap:round; stroke-linejoin:round; stroke-width:4; stroke-opacity:1; fill:none" points="193.936,1486.45 2352.76,1486.45 "/>
<polyline clip-path="url(#clip530)" style="stroke:#000000; stroke-linecap:round; stroke-linejoin:round; stroke-width:4; stroke-opacity:1; fill:none" points="525.454,1486.45 525.454,1467.55 "/>
<polyline clip-path="url(#clip530)" style="stroke:#000000; stroke-linecap:round; stroke-linejoin:round; stroke-width:4; stroke-opacity:1; fill:none" points="899.4,1486.45 899.4,1467.55 "/>
<polyline clip-path="url(#clip530)" style="stroke:#000000; stroke-linecap:round; stroke-linejoin:round; stroke-width:4; stroke-opacity:1; fill:none" points="1273.35,1486.45 1273.35,1467.55 "/>
<polyline clip-path="url(#clip530)" style="stroke:#000000; stroke-linecap:round; stroke-linejoin:round; stroke-width:4; stroke-opacity:1; fill:none" points="1647.29,1486.45 1647.29,1467.55 "/>
<polyline clip-path="url(#clip530)" style="stroke:#000000; stroke-linecap:round; stroke-linejoin:round; stroke-width:4; stroke-opacity:1; fill:none" points="2021.24,1486.45 2021.24,1467.55 "/>
<path clip-path="url(#clip530)" d="M495.397 1532.02 L525.072 1532.02 L525.072 1535.95 L495.397 1535.95 L495.397 1532.02 Z" fill="#000000" fill-rule="nonzero" fill-opacity="1" /><path clip-path="url(#clip530)" d="M539.193 1544.91 L555.512 1544.91 L555.512 1548.85 L533.568 1548.85 L533.568 1544.91 Q536.23 1542.16 540.813 1537.53 Q545.42 1532.88 546.6 1531.53 Q548.845 1529.01 549.725 1527.27 Q550.628 1525.51 550.628 1523.82 Q550.628 1521.07 548.683 1519.33 Q546.762 1517.6 543.66 1517.6 Q541.461 1517.6 539.008 1518.36 Q536.577 1519.13 533.799 1520.68 L533.799 1515.95 Q536.623 1514.82 539.077 1514.24 Q541.531 1513.66 543.568 1513.66 Q548.938 1513.66 552.132 1516.35 Q555.327 1519.03 555.327 1523.52 Q555.327 1525.65 554.517 1527.57 Q553.73 1529.47 551.623 1532.07 Q551.045 1532.74 547.943 1535.95 Q544.841 1539.15 539.193 1544.91 Z" fill="#000000" fill-rule="nonzero" fill-opacity="1" /><path clip-path="url(#clip530)" d="M869.157 1532.02 L898.833 1532.02 L898.833 1535.95 L869.157 1535.95 L869.157 1532.02 Z" fill="#000000" fill-rule="nonzero" fill-opacity="1" /><path clip-path="url(#clip530)" d="M909.736 1544.91 L917.375 1544.91 L917.375 1518.55 L909.064 1520.21 L909.064 1515.95 L917.328 1514.29 L922.004 1514.29 L922.004 1544.91 L929.643 1544.91 L929.643 1548.85 L909.736 1548.85 L909.736 1544.91 Z" fill="#000000" fill-rule="nonzero" fill-opacity="1" /><path clip-path="url(#clip530)" d="M1273.35 1517.37 Q1269.73 1517.37 1267.91 1520.93 Q1266.1 1524.47 1266.1 1531.6 Q1266.1 1538.71 1267.91 1542.27 Q1269.73 1545.82 1273.35 1545.82 Q1276.98 1545.82 1278.79 1542.27 Q1280.61 1538.71 1280.61 1531.6 Q1280.61 1524.47 1278.79 1520.93 Q1276.98 1517.37 1273.35 1517.37 M1273.35 1513.66 Q1279.16 1513.66 1282.21 1518.27 Q1285.29 1522.85 1285.29 1531.6 Q1285.29 1540.33 1282.21 1544.94 Q1279.16 1549.52 1273.35 1549.52 Q1267.54 1549.52 1264.46 1544.94 Q1261.4 1540.33 1261.4 1531.6 Q1261.4 1522.85 1264.46 1518.27 Q1267.54 1513.66 1273.35 1513.66 Z" fill="#000000" fill-rule="nonzero" fill-opacity="1" /><path clip-path="url(#clip530)" d="M1637.67 1544.91 L1645.31 1544.91 L1645.31 1518.55 L1637 1520.21 L1637 1515.95 L1645.27 1514.29 L1649.94 1514.29 L1649.94 1544.91 L1657.58 1544.91 L1657.58 1548.85 L1637.67 1548.85 L1637.67 1544.91 Z" fill="#000000" fill-rule="nonzero" fill-opacity="1" /><path clip-path="url(#clip530)" d="M2015.89 1544.91 L2032.21 1544.91 L2032.21 1548.85 L2010.27 1548.85 L2010.27 1544.91 Q2012.93 1542.16 2017.51 1537.53 Q2022.12 1532.88 2023.3 1531.53 Q2025.54 1529.01 2026.42 1527.27 Q2027.33 1525.51 2027.33 1523.82 Q2027.33 1521.07 2025.38 1519.33 Q2023.46 1517.6 2020.36 1517.6 Q2018.16 1517.6 2015.71 1518.36 Q2013.27 1519.13 2010.5 1520.68 L2010.5 1515.95 Q2013.32 1514.82 2015.77 1514.24 Q2018.23 1513.66 2020.27 1513.66 Q2025.64 1513.66 2028.83 1516.35 Q2032.02 1519.03 2032.02 1523.52 Q2032.02 1525.65 2031.21 1527.57 Q2030.43 1529.47 2028.32 1532.07 Q2027.74 1532.74 2024.64 1535.95 Q2021.54 1539.15 2015.89 1544.91 Z" fill="#000000" fill-rule="nonzero" fill-opacity="1" /><polyline clip-path="url(#clip530)" style="stroke:#000000; stroke-linecap:round; stroke-linejoin:round; stroke-width:4; stroke-opacity:1; fill:none" points="193.936,1486.45 193.936,47.2441 "/>
<polyline clip-path="url(#clip530)" style="stroke:#000000; stroke-linecap:round; stroke-linejoin:round; stroke-width:4; stroke-opacity:1; fill:none" points="193.936,1327.76 212.834,1327.76 "/>
<polyline clip-path="url(#clip530)" style="stroke:#000000; stroke-linecap:round; stroke-linejoin:round; stroke-width:4; stroke-opacity:1; fill:none" points="193.936,1140.79 212.834,1140.79 "/>
<polyline clip-path="url(#clip530)" style="stroke:#000000; stroke-linecap:round; stroke-linejoin:round; stroke-width:4; stroke-opacity:1; fill:none" points="193.936,953.819 212.834,953.819 "/>
<polyline clip-path="url(#clip530)" style="stroke:#000000; stroke-linecap:round; stroke-linejoin:round; stroke-width:4; stroke-opacity:1; fill:none" points="193.936,766.846 212.834,766.846 "/>
<polyline clip-path="url(#clip530)" style="stroke:#000000; stroke-linecap:round; stroke-linejoin:round; stroke-width:4; stroke-opacity:1; fill:none" points="193.936,579.873 212.834,579.873 "/>
<polyline clip-path="url(#clip530)" style="stroke:#000000; stroke-linecap:round; stroke-linejoin:round; stroke-width:4; stroke-opacity:1; fill:none" points="193.936,392.9 212.834,392.9 "/>
<polyline clip-path="url(#clip530)" style="stroke:#000000; stroke-linecap:round; stroke-linejoin:round; stroke-width:4; stroke-opacity:1; fill:none" points="193.936,205.927 212.834,205.927 "/>
<path clip-path="url(#clip530)" d="M51.9875 1328.22 L81.6633 1328.22 L81.6633 1332.15 L51.9875 1332.15 L51.9875 1328.22 Z" fill="#000000" fill-rule="nonzero" fill-opacity="1" /><path clip-path="url(#clip530)" d="M92.566 1341.11 L100.205 1341.11 L100.205 1314.74 L91.8947 1316.41 L91.8947 1312.15 L100.159 1310.48 L104.834 1310.48 L104.834 1341.11 L112.473 1341.11 L112.473 1345.04 L92.566 1345.04 L92.566 1341.11 Z" fill="#000000" fill-rule="nonzero" fill-opacity="1" /><path clip-path="url(#clip530)" d="M121.918 1339.17 L126.802 1339.17 L126.802 1345.04 L121.918 1345.04 L121.918 1339.17 Z" fill="#000000" fill-rule="nonzero" fill-opacity="1" /><path clip-path="url(#clip530)" d="M137.033 1310.48 L155.39 1310.48 L155.39 1314.42 L141.316 1314.42 L141.316 1322.89 Q142.334 1322.54 143.353 1322.38 Q144.371 1322.2 145.39 1322.2 Q151.177 1322.2 154.556 1325.37 Q157.936 1328.54 157.936 1333.96 Q157.936 1339.54 154.464 1342.64 Q150.992 1345.72 144.672 1345.72 Q142.496 1345.72 140.228 1345.35 Q137.982 1344.98 135.575 1344.23 L135.575 1339.54 Q137.658 1340.67 139.881 1341.23 Q142.103 1341.78 144.58 1341.78 Q148.584 1341.78 150.922 1339.67 Q153.26 1337.57 153.26 1333.96 Q153.26 1330.35 150.922 1328.24 Q148.584 1326.13 144.58 1326.13 Q142.705 1326.13 140.83 1326.55 Q138.978 1326.97 137.033 1327.85 L137.033 1310.48 Z" fill="#000000" fill-rule="nonzero" fill-opacity="1" /><path clip-path="url(#clip530)" d="M50.9921 1141.24 L80.6679 1141.24 L80.6679 1145.18 L50.9921 1145.18 L50.9921 1141.24 Z" fill="#000000" fill-rule="nonzero" fill-opacity="1" /><path clip-path="url(#clip530)" d="M91.5706 1154.14 L99.2095 1154.14 L99.2095 1127.77 L90.8993 1129.44 L90.8993 1125.18 L99.1632 1123.51 L103.839 1123.51 L103.839 1154.14 L111.478 1154.14 L111.478 1158.07 L91.5706 1158.07 L91.5706 1154.14 Z" fill="#000000" fill-rule="nonzero" fill-opacity="1" /><path clip-path="url(#clip530)" d="M120.922 1152.19 L125.807 1152.19 L125.807 1158.07 L120.922 1158.07 L120.922 1152.19 Z" fill="#000000" fill-rule="nonzero" fill-opacity="1" /><path clip-path="url(#clip530)" d="M145.992 1126.59 Q142.381 1126.59 140.552 1130.16 Q138.746 1133.7 138.746 1140.83 Q138.746 1147.93 140.552 1151.5 Q142.381 1155.04 145.992 1155.04 Q149.626 1155.04 151.431 1151.5 Q153.26 1147.93 153.26 1140.83 Q153.26 1133.7 151.431 1130.16 Q149.626 1126.59 145.992 1126.59 M145.992 1122.89 Q151.802 1122.89 154.857 1127.49 Q157.936 1132.08 157.936 1140.83 Q157.936 1149.55 154.857 1154.16 Q151.802 1158.74 145.992 1158.74 Q140.181 1158.74 137.103 1154.16 Q134.047 1149.55 134.047 1140.83 Q134.047 1132.08 137.103 1127.49 Q140.181 1122.89 145.992 1122.89 Z" fill="#000000" fill-rule="nonzero" fill-opacity="1" /><path clip-path="url(#clip530)" d="M51.9875 954.27 L81.6633 954.27 L81.6633 958.205 L51.9875 958.205 L51.9875 954.27 Z" fill="#000000" fill-rule="nonzero" fill-opacity="1" /><path clip-path="url(#clip530)" d="M101.756 939.618 Q98.1447 939.618 96.316 943.182 Q94.5104 946.724 94.5104 953.854 Q94.5104 960.96 96.316 964.525 Q98.1447 968.066 101.756 968.066 Q105.39 968.066 107.196 964.525 Q109.024 960.96 109.024 953.854 Q109.024 946.724 107.196 943.182 Q105.39 939.618 101.756 939.618 M101.756 935.914 Q107.566 935.914 110.621 940.52 Q113.7 945.104 113.7 953.854 Q113.7 962.58 110.621 967.187 Q107.566 971.77 101.756 971.77 Q95.9456 971.77 92.8669 967.187 Q89.8114 962.58 89.8114 953.854 Q89.8114 945.104 92.8669 940.52 Q95.9456 935.914 101.756 935.914 Z" fill="#000000" fill-rule="nonzero" fill-opacity="1" /><path clip-path="url(#clip530)" d="M121.918 965.219 L126.802 965.219 L126.802 971.099 L121.918 971.099 L121.918 965.219 Z" fill="#000000" fill-rule="nonzero" fill-opacity="1" /><path clip-path="url(#clip530)" d="M137.033 936.539 L155.39 936.539 L155.39 940.474 L141.316 940.474 L141.316 948.946 Q142.334 948.599 143.353 948.437 Q144.371 948.252 145.39 948.252 Q151.177 948.252 154.556 951.423 Q157.936 954.594 157.936 960.011 Q157.936 965.59 154.464 968.691 Q150.992 971.77 144.672 971.77 Q142.496 971.77 140.228 971.4 Q137.982 971.029 135.575 970.289 L135.575 965.59 Q137.658 966.724 139.881 967.279 Q142.103 967.835 144.58 967.835 Q148.584 967.835 150.922 965.729 Q153.26 963.622 153.26 960.011 Q153.26 956.4 150.922 954.293 Q148.584 952.187 144.58 952.187 Q142.705 952.187 140.83 952.604 Q138.978 953.02 137.033 953.9 L137.033 936.539 Z" fill="#000000" fill-rule="nonzero" fill-opacity="1" /><path clip-path="url(#clip530)" d="M100.76 752.645 Q97.1493 752.645 95.3206 756.209 Q93.515 759.751 93.515 766.881 Q93.515 773.987 95.3206 777.552 Q97.1493 781.094 100.76 781.094 Q104.395 781.094 106.2 777.552 Q108.029 773.987 108.029 766.881 Q108.029 759.751 106.2 756.209 Q104.395 752.645 100.76 752.645 M100.76 748.941 Q106.571 748.941 109.626 753.547 Q112.705 758.131 112.705 766.881 Q112.705 775.608 109.626 780.214 Q106.571 784.797 100.76 784.797 Q94.9502 784.797 91.8715 780.214 Q88.816 775.608 88.816 766.881 Q88.816 758.131 91.8715 753.547 Q94.9502 748.941 100.76 748.941 Z" fill="#000000" fill-rule="nonzero" fill-opacity="1" /><path clip-path="url(#clip530)" d="M120.922 778.246 L125.807 778.246 L125.807 784.126 L120.922 784.126 L120.922 778.246 Z" fill="#000000" fill-rule="nonzero" fill-opacity="1" /><path clip-path="url(#clip530)" d="M145.992 752.645 Q142.381 752.645 140.552 756.209 Q138.746 759.751 138.746 766.881 Q138.746 773.987 140.552 777.552 Q142.381 781.094 145.992 781.094 Q149.626 781.094 151.431 777.552 Q153.26 773.987 153.26 766.881 Q153.26 759.751 151.431 756.209 Q149.626 752.645 145.992 752.645 M145.992 748.941 Q151.802 748.941 154.857 753.547 Q157.936 758.131 157.936 766.881 Q157.936 775.608 154.857 780.214 Q151.802 784.797 145.992 784.797 Q140.181 784.797 137.103 780.214 Q134.047 775.608 134.047 766.881 Q134.047 758.131 137.103 753.547 Q140.181 748.941 145.992 748.941 Z" fill="#000000" fill-rule="nonzero" fill-opacity="1" /><path clip-path="url(#clip530)" d="M101.756 565.672 Q98.1447 565.672 96.316 569.237 Q94.5104 572.778 94.5104 579.908 Q94.5104 587.014 96.316 590.579 Q98.1447 594.121 101.756 594.121 Q105.39 594.121 107.196 590.579 Q109.024 587.014 109.024 579.908 Q109.024 572.778 107.196 569.237 Q105.39 565.672 101.756 565.672 M101.756 561.968 Q107.566 561.968 110.621 566.575 Q113.7 571.158 113.7 579.908 Q113.7 588.635 110.621 593.241 Q107.566 597.824 101.756 597.824 Q95.9456 597.824 92.8669 593.241 Q89.8114 588.635 89.8114 579.908 Q89.8114 571.158 92.8669 566.575 Q95.9456 561.968 101.756 561.968 Z" fill="#000000" fill-rule="nonzero" fill-opacity="1" /><path clip-path="url(#clip530)" d="M121.918 591.273 L126.802 591.273 L126.802 597.153 L121.918 597.153 L121.918 591.273 Z" fill="#000000" fill-rule="nonzero" fill-opacity="1" /><path clip-path="url(#clip530)" d="M137.033 562.593 L155.39 562.593 L155.39 566.528 L141.316 566.528 L141.316 575 Q142.334 574.653 143.353 574.491 Q144.371 574.306 145.39 574.306 Q151.177 574.306 154.556 577.477 Q157.936 580.649 157.936 586.065 Q157.936 591.644 154.464 594.746 Q150.992 597.824 144.672 597.824 Q142.496 597.824 140.228 597.454 Q137.982 597.084 135.575 596.343 L135.575 591.644 Q137.658 592.778 139.881 593.334 Q142.103 593.889 144.58 593.889 Q148.584 593.889 150.922 591.783 Q153.26 589.676 153.26 586.065 Q153.26 582.454 150.922 580.348 Q148.584 578.241 144.58 578.241 Q142.705 578.241 140.83 578.658 Q138.978 579.074 137.033 579.954 L137.033 562.593 Z" fill="#000000" fill-rule="nonzero" fill-opacity="1" /><path clip-path="url(#clip530)" d="M91.5706 406.245 L99.2095 406.245 L99.2095 379.879 L90.8993 381.546 L90.8993 377.287 L99.1632 375.62 L103.839 375.62 L103.839 406.245 L111.478 406.245 L111.478 410.18 L91.5706 410.18 L91.5706 406.245 Z" fill="#000000" fill-rule="nonzero" fill-opacity="1" /><path clip-path="url(#clip530)" d="M120.922 404.301 L125.807 404.301 L125.807 410.18 L120.922 410.18 L120.922 404.301 Z" fill="#000000" fill-rule="nonzero" fill-opacity="1" /><path clip-path="url(#clip530)" d="M145.992 378.699 Q142.381 378.699 140.552 382.264 Q138.746 385.805 138.746 392.935 Q138.746 400.041 140.552 403.606 Q142.381 407.148 145.992 407.148 Q149.626 407.148 151.431 403.606 Q153.26 400.041 153.26 392.935 Q153.26 385.805 151.431 382.264 Q149.626 378.699 145.992 378.699 M145.992 374.995 Q151.802 374.995 154.857 379.602 Q157.936 384.185 157.936 392.935 Q157.936 401.662 154.857 406.268 Q151.802 410.851 145.992 410.851 Q140.181 410.851 137.103 406.268 Q134.047 401.662 134.047 392.935 Q134.047 384.185 137.103 379.602 Q140.181 374.995 145.992 374.995 Z" fill="#000000" fill-rule="nonzero" fill-opacity="1" /><path clip-path="url(#clip530)" d="M92.566 219.272 L100.205 219.272 L100.205 192.907 L91.8947 194.573 L91.8947 190.314 L100.159 188.647 L104.834 188.647 L104.834 219.272 L112.473 219.272 L112.473 223.207 L92.566 223.207 L92.566 219.272 Z" fill="#000000" fill-rule="nonzero" fill-opacity="1" /><path clip-path="url(#clip530)" d="M121.918 217.328 L126.802 217.328 L126.802 223.207 L121.918 223.207 L121.918 217.328 Z" fill="#000000" fill-rule="nonzero" fill-opacity="1" /><path clip-path="url(#clip530)" d="M137.033 188.647 L155.39 188.647 L155.39 192.582 L141.316 192.582 L141.316 201.055 Q142.334 200.707 143.353 200.545 Q144.371 200.36 145.39 200.36 Q151.177 200.36 154.556 203.531 Q157.936 206.703 157.936 212.119 Q157.936 217.698 154.464 220.8 Q150.992 223.879 144.672 223.879 Q142.496 223.879 140.228 223.508 Q137.982 223.138 135.575 222.397 L135.575 217.698 Q137.658 218.832 139.881 219.388 Q142.103 219.943 144.58 219.943 Q148.584 219.943 150.922 217.837 Q153.26 215.73 153.26 212.119 Q153.26 208.508 150.922 206.402 Q148.584 204.295 144.58 204.295 Q142.705 204.295 140.83 204.712 Q138.978 205.129 137.033 206.008 L137.033 188.647 Z" fill="#000000" fill-rule="nonzero" fill-opacity="1" /><polyline clip-path="url(#clip532)" style="stroke:#009af9; stroke-linecap:round; stroke-linejoin:round; stroke-width:4; stroke-opacity:1; fill:none" points="1273.35,766.846 1271.26,763.643 1269.17,760.44 1267.08,757.237 1265,754.035 1262.91,750.833 1260.82,747.632 1258.73,744.432 1256.64,741.232 1254.55,738.034 1252.46,734.836 1250.37,731.64 1248.27,728.445 1246.18,725.252 1244.08,722.06 1241.98,718.87 1239.88,715.681 1237.78,712.495 1235.68,709.311 1233.57,706.129 1231.47,702.949 1229.36,699.772 1227.25,696.597 1225.14,693.425 1223.02,690.256 1220.9,687.09 1218.78,683.927 1216.66,680.767 1214.53,677.611 1212.41,674.458 1210.27,671.308 1208.14,668.163 1206,665.021 1203.86,661.883 1201.72,658.749 1199.57,655.619 1197.42,652.494 1195.27,649.373 1193.11,646.256 1190.95,643.145 1188.78,640.038 1186.61,636.936 1184.44,633.839 1182.26,630.748 1180.08,627.662 1177.9,624.581 1175.71,621.506 1173.51,618.436 1171.32,615.373 1169.11,612.315 1166.91,609.263 1164.69,606.218 1162.48,603.179 1160.25,600.147 1158.03,597.121 1155.8,594.102 1153.56,591.089 1151.32,588.084 1149.07,585.086 1146.82,582.095 1144.56,579.111 1142.3,576.135 1140.03,573.167 1137.76,570.206 1135.48,567.253 1133.19,564.309 1130.9,561.372 1128.61,558.444 1126.31,555.524 1124,552.612 1121.69,549.709 1119.37,546.815 1117.04,543.93 1114.71,541.054 1112.38,538.187 1110.03,535.329 1107.68,532.481 1105.33,529.642 1102.97,526.813 1100.6,523.994 1098.23,521.185 1095.85,518.385 1093.46,515.596 1091.07,512.817 1088.67,510.049 1086.26,507.291 1083.85,504.544 1081.43,501.808 1079.01,499.082 1076.58,496.368 1074.14,493.665 1071.69,490.973 1069.24,488.292 1066.79,485.623 1064.32,482.966 1061.85,480.32 1059.38,477.687 1056.89,475.065 1054.4,472.456 1051.91,469.859 1049.41,467.274 1046.9,464.702 1044.38,462.142 1041.86,459.595 1039.33,457.061 1036.8,454.54 1034.25,452.032 1031.71,449.538 1029.15,447.056 1026.59,444.588 1024.02,442.134 1021.45,439.693 1018.87,437.266 1016.28,434.853 1013.69,432.454 1011.09,430.069 1008.49,427.698 1005.87,425.342 1003.26,423 1000.63,420.672 998.003,418.359 995.367,416.061 992.726,413.778 990.078,411.51 987.424,409.256 984.765,407.018 982.099,404.795 979.428,402.588 976.751,400.396 974.069,398.219 971.381,396.058 968.687,393.913 965.988,391.783 963.283,389.67 960.574,387.572 957.858,385.491 955.138,383.425 952.412,381.376 949.682,379.344 946.946,377.327 944.206,375.327 941.46,373.344 938.71,371.377 935.955,369.428 933.196,367.494 930.432,365.578 927.663,363.679 924.89,361.797 922.113,359.931 919.332,358.083 916.546,356.252 913.757,354.439 910.963,352.643 908.166,350.864 905.365,349.102 902.561,347.359 899.752,345.632 896.941,343.924 894.126,342.233 891.308,340.56 888.486,338.904 885.662,337.267 882.835,335.647 880.004,334.045 877.171,332.461 874.336,330.895 871.498,329.348 868.657,327.818 865.815,326.306 862.97,324.813 860.123,323.337 857.274,321.88 854.423,320.441 851.571,319.021 848.716,317.619 845.861,316.235 843.004,314.869 840.145,313.522 837.286,312.193 834.426,310.882 831.564,309.59 828.702,308.316 825.839,307.061 822.976,305.824 820.112,304.605 817.248,303.405 814.384,302.223 811.52,301.06 808.655,299.915 805.791,298.789 802.927,297.681 800.064,296.591 797.201,295.52 794.339,294.467 791.478,293.433 788.618,292.416 785.759,291.419 782.901,290.439 780.044,289.478 777.188,288.535 774.335,287.611 771.483,286.705 768.632,285.816 765.784,284.947 762.938,284.095 760.094,283.261 757.252,282.445 754.412,281.648 751.576,280.868 748.742,280.107 745.91,279.363 743.082,278.637 740.257,277.93 737.434,277.239 734.615,276.567 731.8,275.912 728.988,275.275 726.18,274.656 723.375,274.054 720.575,273.47 717.778,272.903 714.985,272.353 712.197,271.821 709.413,271.306 706.634,270.808 703.859,270.327 701.089,269.864 698.324,269.417 695.563,268.987 692.808,268.574 690.058,268.178 687.313,267.799 684.573,267.436 681.839,267.09 679.111,266.761 676.388,266.447 673.671,266.151 670.96,265.87 668.255,265.605 665.556,265.357 662.863,265.125 660.177,264.908 657.497,264.708 654.824,264.523 652.157,264.354 649.497,264.201 646.844,264.063 644.197,263.94 641.558,263.833 638.926,263.741 636.3,263.664 633.683,263.602 631.072,263.555 628.469,263.524 625.874,263.506 623.286,263.504 620.706,263.516 618.133,263.542 615.569,263.583 613.012,263.639 610.464,263.708 607.923,263.792 605.391,263.889 602.867,264 600.352,264.126 597.844,264.265 595.346,264.417 592.855,264.583 590.374,264.762 587.901,264.955 585.437,265.161 582.982,265.38 580.535,265.612 578.098,265.856 575.669,266.114 573.25,266.384 570.84,266.667 568.439,266.962 566.047,267.27 563.664,267.589 561.291,267.921 558.928,268.265 556.573,268.621 554.228,268.989 551.893,269.368 549.568,269.759 547.252,270.162 544.945,270.576 542.649,271.001 540.362,271.437 538.085,271.885 535.818,272.343 533.561,272.813 531.314,273.293 529.076,273.784 526.849,274.285 524.632,274.797 522.425,275.319 520.228,275.851 518.041,276.394 515.864,276.946 513.698,277.509 511.541,278.081 509.395,278.663 507.259,279.255 505.134,279.856 503.019,280.467 500.914,281.087 498.819,281.716 496.735,282.354 494.662,283.002 492.598,283.658 490.545,284.323 488.503,284.996 486.471,285.679 484.449,286.37 482.438,287.069 480.438,287.777 478.448,288.492 476.468,289.216 474.499,289.948 472.541,290.688 470.593,291.436 468.655,292.192 466.728,292.955 464.812,293.726 462.906,294.504 461.011,295.289 459.126,296.082 457.252,296.882 455.388,297.689 453.535,298.503 451.692,299.325 449.86,300.152 448.038,300.987 446.227,301.828 444.426,302.676 442.636,303.531 440.856,304.391 439.087,305.258 437.329,306.132 435.58,307.011 433.842,307.897 432.115,308.788 430.398,309.685 428.692,310.589 426.995,311.497 425.31,312.412 423.634,313.332 421.969,314.258 420.314,315.189 418.67,316.125 417.035,317.067 415.412,318.014 413.798,318.966 412.194,319.923 410.601,320.884 409.018,321.851 407.445,322.823 405.882,323.799 404.33,324.78 402.787,325.766 401.255,326.756 399.732,327.751 398.22,328.75 396.717,329.754 395.225,330.761 393.742,331.773 392.27,332.789 390.807,333.809 389.354,334.834 387.911,335.862 386.478,336.894 385.055,337.929 383.641,338.969 382.237,340.012 380.843,341.059 379.458,342.11 378.083,343.164 376.718,344.221 375.362,345.282 374.016,346.347 372.679,347.414 371.352,348.485 370.034,349.559 368.725,350.636 367.426,351.717 366.136,352.8 364.856,353.886 363.585,354.975 362.323,356.068 361.07,357.163 359.827,358.26 358.592,359.361 357.367,360.464 356.151,361.57 354.943,362.679 353.745,363.79 352.556,364.904 351.376,366.02 350.204,367.138 349.042,368.259 347.888,369.382 346.743,370.508 345.607,371.636 344.479,372.766 343.36,373.899 342.25,375.033 341.149,376.17 340.056,377.309 338.971,378.449 337.895,379.592 336.828,380.737 335.769,381.884 334.718,383.033 333.676,384.183 332.642,385.336 331.616,386.49 330.599,387.646 329.589,388.804 328.588,389.964 327.595,391.125 326.611,392.288 325.634,393.453 324.665,394.619 323.704,395.787 322.752,396.957 321.807,398.128 320.87,399.3 319.941,400.474 319.019,401.65 318.106,402.827 317.2,404.006 316.302,405.186 315.412,406.367 314.529,407.55 313.654,408.734 312.787,409.919 311.927,411.106 311.074,412.294 310.229,413.484 309.392,414.674 308.562,415.866 307.739,417.06 306.923,418.254 306.115,419.45 305.314,420.647 304.521,421.845 303.734,423.044 302.955,424.244 302.183,425.446 301.418,426.649 300.661,427.852 299.91,429.057 299.166,430.264 298.429,431.471 297.699,432.679 296.977,433.889 296.261,435.099 295.551,436.311 294.849,437.523 294.154,438.737 293.465,439.952 292.783,441.168 292.108,442.385 291.44,443.603 290.778,444.822 290.123,446.042 289.474,447.263 288.832,448.485 288.197,449.708 287.568,450.933 286.946,452.158 286.33,453.384 285.72,454.612 285.118,455.84 284.521,457.07 283.931,458.3 283.347,459.532 282.77,460.764 282.199,461.998 281.634,463.232 281.076,464.468 280.523,465.705 279.977,466.943 279.438,468.182 278.904,469.422 278.377,470.663 277.856,471.905 277.34,473.148 276.831,474.393 276.329,475.638 275.832,476.885 275.341,478.133 274.856,479.381 274.378,480.631 273.905,481.882 273.439,483.135 272.978,484.388 272.523,485.643 272.075,486.898 271.632,488.155 271.195,489.413 270.764,490.673 270.339,491.933 269.92,493.195 269.507,494.458 269.099,495.722 268.698,496.988 268.302,498.255 267.912,499.523 267.528,500.792 267.15,502.063 266.778,503.335 266.411,504.608 266.05,505.883 265.695,507.159 265.346,508.436 265.003,509.715 264.665,510.995 264.333,512.277 264.007,513.56 263.687,514.844 263.372,516.13 263.063,517.418 262.76,518.707 262.463,519.997 262.171,521.289 261.885,522.582 261.605,523.877 261.331,525.174 261.062,526.472 260.799,527.772 260.542,529.073 260.291,530.376 260.045,531.68 259.805,532.986 259.571,534.294 259.343,535.604 259.12,536.915 258.903,538.228 258.692,539.542 258.487,540.859 258.288,542.177 258.094,543.496 257.906,544.818 257.724,546.141 257.548,547.467 257.378,548.794 257.213,550.123 257.055,551.453 256.902,552.786 256.755,554.12 256.614,555.457 256.479,556.795 256.35,558.135 256.227,559.477 256.11,560.821 255.998,562.168 255.893,563.516 255.794,564.866 255.7,566.218 255.613,567.572 255.532,568.928 255.457,570.286 255.388,571.646 255.325,573.009 255.268,574.373 255.217,575.74 255.172,577.108 255.134,578.479 255.102,579.852 255.076,581.227 255.056,582.604 255.043,583.983 255.036,585.365 255.035,586.749 255.04,588.135 255.052,589.523 255.07,590.913 255.095,592.306 255.126,593.701 255.164,595.098 255.208,596.497 255.259,597.899 255.316,599.303 255.38,600.709 255.45,602.118 255.527,603.529 255.611,604.942 255.701,606.357 255.798,607.775 255.902,609.195 256.013,610.618 256.13,612.043 256.255,613.47 256.386,614.899 256.524,616.331 256.67,617.766 256.822,619.202 256.981,620.641 257.148,622.083 257.321,623.526 257.502,624.972 257.689,626.421 257.884,627.872 258.087,629.325 258.296,630.781 258.513,632.239 258.738,633.699 258.969,635.162 259.208,636.627 259.455,638.095 259.709,639.565 259.971,641.037 260.24,642.512 260.517,643.989 260.802,645.468 261.095,646.95 261.395,648.434 261.703,649.921 262.019,651.41 262.343,652.901 262.675,654.394 263.015,655.89 263.363,657.388 263.719,658.889 264.083,660.392 264.455,661.897 264.836,663.404 265.225,664.914 265.622,666.425 266.028,667.939 266.442,669.456 266.864,670.974 267.295,672.495 267.735,674.018 268.183,675.543 268.64,677.07 269.106,678.6 269.58,680.131 270.063,681.665 270.556,683.201 271.057,684.738 271.566,686.278 272.085,687.82 272.614,689.364 273.151,690.91 273.697,692.458 274.253,694.007 274.818,695.559 275.392,697.113 275.975,698.668 276.568,700.225 277.171,701.784 277.783,703.345 278.404,704.908 279.036,706.472 279.677,708.039 280.327,709.606 280.988,711.176 281.658,712.747 282.339,714.319 283.029,715.894 283.729,717.469 284.439,719.046 285.16,720.625 285.891,722.205 286.631,723.787 287.383,725.369 288.144,726.953 288.916,728.539 289.698,730.125 290.491,731.713 291.295,733.302 292.109,734.892 292.934,736.482 293.769,738.074 294.615,739.667 295.472,741.261 296.34,742.856 297.219,744.451 298.109,746.048 299.01,747.645 299.922,749.242 300.845,750.841 301.78,752.44 302.725,754.039 303.682,755.639 304.651,757.239 305.63,758.84 306.622,760.441 307.624,762.042 308.639,763.643 309.665,765.244 310.702,766.846 "/>
<polyline clip-path="url(#clip532)" style="stroke:#e26f46; stroke-linecap:round; stroke-linejoin:round; stroke-width:4; stroke-opacity:1; fill:none" points="2235.99,766.846 2237.03,768.447 2238.05,770.049 2239.07,771.65 2240.07,773.251 2241.06,774.852 2242.04,776.453 2243.01,778.053 2243.97,779.653 2244.91,781.252 2245.85,782.851 2246.77,784.45 2247.68,786.047 2248.58,787.644 2249.47,789.241 2250.35,790.836 2251.22,792.431 2252.08,794.025 2252.92,795.618 2253.76,797.21 2254.58,798.8 2255.4,800.39 2256.2,801.979 2256.99,803.567 2257.78,805.153 2258.55,806.739 2259.31,808.323 2260.06,809.905 2260.8,811.487 2261.53,813.067 2262.25,814.645 2262.96,816.223 2263.66,817.798 2264.35,819.373 2265.03,820.945 2265.7,822.516 2266.36,824.086 2267.02,825.653 2267.66,827.22 2268.29,828.784 2268.91,830.347 2269.52,831.908 2270.12,833.467 2270.72,835.024 2271.3,836.579 2271.87,838.133 2272.44,839.685 2272.99,841.234 2273.54,842.782 2274.08,844.328 2274.61,845.872 2275.13,847.414 2275.64,848.954 2276.14,850.491 2276.63,852.027 2277.11,853.561 2277.59,855.092 2278.05,856.622 2278.51,858.149 2278.96,859.674 2279.4,861.197 2279.83,862.718 2280.25,864.236 2280.66,865.753 2281.07,867.267 2281.47,868.778 2281.86,870.288 2282.24,871.795 2282.61,873.3 2282.97,874.803 2283.33,876.304 2283.68,877.802 2284.02,879.298 2284.35,880.791 2284.67,882.282 2284.99,883.771 2285.3,885.258 2285.6,886.742 2285.89,888.224 2286.17,889.703 2286.45,891.18 2286.72,892.655 2286.98,894.127 2287.24,895.597 2287.48,897.065 2287.72,898.53 2287.95,899.993 2288.18,901.453 2288.4,902.911 2288.61,904.367 2288.81,905.82 2289,907.271 2289.19,908.72 2289.37,910.166 2289.54,911.609 2289.71,913.051 2289.87,914.49 2290.02,915.926 2290.17,917.361 2290.31,918.793 2290.44,920.222 2290.56,921.649 2290.68,923.074 2290.79,924.497 2290.89,925.917 2290.99,927.335 2291.08,928.75 2291.16,930.163 2291.24,931.574 2291.31,932.983 2291.38,934.389 2291.43,935.793 2291.48,937.195 2291.53,938.594 2291.57,939.991 2291.6,941.386 2291.62,942.779 2291.64,944.169 2291.65,945.557 2291.66,946.943 2291.66,948.327 2291.65,949.709 2291.64,951.088 2291.62,952.465 2291.59,953.84 2291.56,955.213 2291.52,956.584 2291.47,957.952 2291.42,959.319 2291.37,960.683 2291.3,962.046 2291.24,963.406 2291.16,964.764 2291.08,966.12 2290.99,967.474 2290.9,968.826 2290.8,970.176 2290.69,971.524 2290.58,972.87 2290.47,974.215 2290.34,975.557 2290.21,976.897 2290.08,978.235 2289.94,979.572 2289.79,980.906 2289.64,982.239 2289.48,983.569 2289.31,984.898 2289.14,986.225 2288.97,987.551 2288.79,988.874 2288.6,990.196 2288.4,991.515 2288.2,992.833 2288,994.15 2287.79,995.464 2287.57,996.777 2287.35,998.088 2287.12,999.398 2286.89,1000.71 2286.65,1002.01 2286.4,1003.32 2286.15,1004.62 2285.89,1005.92 2285.63,1007.22 2285.36,1008.52 2285.09,1009.81 2284.81,1011.11 2284.52,1012.4 2284.23,1013.69 2283.93,1014.99 2283.63,1016.27 2283.32,1017.56 2283.01,1018.85 2282.68,1020.13 2282.36,1021.41 2282.03,1022.7 2281.69,1023.98 2281.35,1025.26 2281,1026.53 2280.64,1027.81 2280.28,1029.08 2279.91,1030.36 2279.54,1031.63 2279.16,1032.9 2278.78,1034.17 2278.39,1035.44 2277.99,1036.7 2277.59,1037.97 2277.19,1039.23 2276.77,1040.5 2276.35,1041.76 2275.93,1043.02 2275.5,1044.28 2275.06,1045.54 2274.62,1046.79 2274.17,1048.05 2273.71,1049.3 2273.25,1050.56 2272.79,1051.81 2272.31,1053.06 2271.84,1054.31 2271.35,1055.56 2270.86,1056.81 2270.36,1058.05 2269.86,1059.3 2269.35,1060.54 2268.84,1061.79 2268.32,1063.03 2267.79,1064.27 2267.25,1065.51 2266.71,1066.75 2266.17,1067.99 2265.62,1069.22 2265.06,1070.46 2264.49,1071.69 2263.92,1072.93 2263.34,1074.16 2262.76,1075.39 2262.17,1076.62 2261.57,1077.85 2260.97,1079.08 2260.36,1080.31 2259.75,1081.53 2259.12,1082.76 2258.5,1083.98 2257.86,1085.21 2257.22,1086.43 2256.57,1087.65 2255.91,1088.87 2255.25,1090.09 2254.58,1091.31 2253.91,1092.52 2253.23,1093.74 2252.54,1094.95 2251.84,1096.17 2251.14,1097.38 2250.43,1098.59 2249.72,1099.8 2248.99,1101.01 2248.26,1102.22 2247.53,1103.43 2246.78,1104.63 2246.03,1105.84 2245.27,1107.04 2244.51,1108.25 2243.74,1109.45 2242.96,1110.65 2242.17,1111.85 2241.38,1113.05 2240.58,1114.24 2239.77,1115.44 2238.95,1116.63 2238.13,1117.83 2237.3,1119.02 2236.46,1120.21 2235.62,1121.4 2234.77,1122.59 2233.91,1123.77 2233.04,1124.96 2232.16,1126.14 2231.28,1127.32 2230.39,1128.51 2229.49,1129.69 2228.59,1130.86 2227.67,1132.04 2226.75,1133.22 2225.82,1134.39 2224.89,1135.56 2223.94,1136.74 2222.99,1137.9 2222.03,1139.07 2221.06,1140.24 2220.08,1141.4 2219.1,1142.57 2218.1,1143.73 2217.1,1144.89 2216.09,1146.05 2215.08,1147.2 2214.05,1148.36 2213.02,1149.51 2211.97,1150.66 2210.92,1151.81 2209.86,1152.95 2208.8,1154.1 2207.72,1155.24 2206.64,1156.38 2205.54,1157.52 2204.44,1158.66 2203.33,1159.79 2202.21,1160.93 2201.09,1162.06 2199.95,1163.18 2198.8,1164.31 2197.65,1165.43 2196.49,1166.55 2195.32,1167.67 2194.14,1168.79 2192.95,1169.9 2191.75,1171.01 2190.54,1172.12 2189.33,1173.23 2188.1,1174.33 2186.87,1175.43 2185.62,1176.53 2184.37,1177.62 2183.11,1178.72 2181.84,1179.81 2180.56,1180.89 2179.27,1181.98 2177.97,1183.06 2176.66,1184.13 2175.34,1185.21 2174.01,1186.28 2172.68,1187.35 2171.33,1188.41 2169.97,1189.47 2168.61,1190.53 2167.23,1191.58 2165.85,1192.63 2164.45,1193.68 2163.05,1194.72 2161.64,1195.76 2160.21,1196.8 2158.78,1197.83 2157.34,1198.86 2155.88,1199.88 2154.42,1200.9 2152.95,1201.92 2151.47,1202.93 2149.97,1203.94 2148.47,1204.94 2146.96,1205.94 2145.44,1206.94 2143.9,1207.93 2142.36,1208.91 2140.81,1209.89 2139.25,1210.87 2137.67,1211.84 2136.09,1212.81 2134.5,1213.77 2132.89,1214.73 2131.28,1215.68 2129.66,1216.63 2128.02,1217.57 2126.38,1218.5 2124.72,1219.43 2123.06,1220.36 2121.38,1221.28 2119.7,1222.19 2118,1223.1 2116.29,1224.01 2114.58,1224.9 2112.85,1225.8 2111.11,1226.68 2109.36,1227.56 2107.6,1228.43 2105.84,1229.3 2104.06,1230.16 2102.27,1231.02 2100.46,1231.86 2098.65,1232.7 2096.83,1233.54 2095,1234.37 2093.16,1235.19 2091.3,1236 2089.44,1236.81 2087.57,1237.61 2085.68,1238.4 2083.79,1239.19 2081.88,1239.97 2079.96,1240.74 2078.04,1241.5 2076.1,1242.26 2074.15,1243 2072.19,1243.74 2070.22,1244.48 2068.24,1245.2 2066.25,1245.92 2064.25,1246.62 2062.24,1247.32 2060.22,1248.01 2058.19,1248.7 2056.15,1249.37 2054.09,1250.03 2052.03,1250.69 2049.96,1251.34 2047.87,1251.98 2045.78,1252.61 2043.67,1253.23 2041.56,1253.84 2039.43,1254.44 2037.3,1255.03 2035.15,1255.61 2032.99,1256.18 2030.83,1256.75 2028.65,1257.3 2026.46,1257.84 2024.27,1258.37 2022.06,1258.9 2019.84,1259.41 2017.62,1259.91 2015.38,1260.4 2013.13,1260.88 2010.87,1261.35 2008.61,1261.81 2006.33,1262.25 2004.04,1262.69 2001.75,1263.12 1999.44,1263.53 1997.12,1263.93 1994.8,1264.32 1992.46,1264.7 1990.12,1265.07 1987.76,1265.43 1985.4,1265.77 1983.03,1266.1 1980.64,1266.42 1978.25,1266.73 1975.85,1267.03 1973.44,1267.31 1971.02,1267.58 1968.59,1267.84 1966.16,1268.08 1963.71,1268.31 1961.25,1268.53 1958.79,1268.74 1956.32,1268.93 1953.84,1269.11 1951.35,1269.27 1948.85,1269.43 1946.34,1269.57 1943.82,1269.69 1941.3,1269.8 1938.77,1269.9 1936.23,1269.98 1933.68,1270.05 1931.12,1270.11 1928.56,1270.15 1925.99,1270.18 1923.41,1270.19 1920.82,1270.19 1918.22,1270.17 1915.62,1270.14 1913.01,1270.09 1910.39,1270.03 1907.77,1269.95 1905.13,1269.86 1902.49,1269.75 1899.85,1269.63 1897.2,1269.49 1894.54,1269.34 1891.87,1269.17 1889.19,1268.98 1886.51,1268.78 1883.83,1268.57 1881.14,1268.33 1878.44,1268.09 1875.73,1267.82 1873.02,1267.54 1870.3,1267.24 1867.58,1266.93 1864.85,1266.6 1862.12,1266.26 1859.38,1265.89 1856.63,1265.51 1853.88,1265.12 1851.13,1264.7 1848.37,1264.27 1845.6,1263.83 1842.83,1263.36 1840.06,1262.88 1837.28,1262.39 1834.49,1261.87 1831.71,1261.34 1828.91,1260.79 1826.12,1260.22 1823.32,1259.64 1820.51,1259.04 1817.7,1258.42 1814.89,1257.78 1812.08,1257.12 1809.26,1256.45 1806.44,1255.76 1803.61,1255.05 1800.78,1254.33 1797.95,1253.59 1795.12,1252.82 1792.28,1252.04 1789.44,1251.25 1786.6,1250.43 1783.75,1249.6 1780.91,1248.75 1778.06,1247.88 1775.21,1246.99 1772.36,1246.08 1769.5,1245.16 1766.65,1244.21 1763.79,1243.25 1760.93,1242.27 1758.07,1241.28 1755.21,1240.26 1752.35,1239.22 1749.49,1238.17 1746.63,1237.1 1743.76,1236.01 1740.9,1234.9 1738.04,1233.78 1735.17,1232.63 1732.31,1231.47 1729.44,1230.29 1726.58,1229.09 1723.72,1227.87 1720.85,1226.63 1717.99,1225.38 1715.13,1224.1 1712.27,1222.81 1709.41,1221.5 1706.55,1220.17 1703.69,1218.82 1700.83,1217.46 1697.98,1216.07 1695.12,1214.67 1692.27,1213.25 1689.42,1211.81 1686.57,1210.35 1683.72,1208.88 1680.88,1207.39 1678.03,1205.87 1675.19,1204.34 1672.36,1202.8 1669.52,1201.23 1666.69,1199.65 1663.86,1198.05 1661.03,1196.43 1658.21,1194.79 1655.38,1193.13 1652.57,1191.46 1649.75,1189.77 1646.94,1188.06 1644.13,1186.33 1641.33,1184.59 1638.53,1182.83 1635.73,1181.05 1632.94,1179.25 1630.15,1177.44 1627.36,1175.61 1624.58,1173.76 1621.8,1171.9 1619.03,1170.01 1616.26,1168.11 1613.5,1166.2 1610.74,1164.26 1607.98,1162.31 1605.23,1160.35 1602.49,1158.36 1599.75,1156.36 1597.01,1154.35 1594.28,1152.32 1591.55,1150.27 1588.83,1148.2 1586.12,1146.12 1583.41,1144.02 1580.7,1141.91 1578,1139.78 1575.31,1137.63 1572.62,1135.47 1569.94,1133.3 1567.26,1131.1 1564.59,1128.9 1561.93,1126.67 1559.27,1124.44 1556.61,1122.18 1553.97,1119.91 1551.32,1117.63 1548.69,1115.33 1546.06,1113.02 1543.44,1110.69 1540.82,1108.35 1538.21,1105.99 1535.6,1103.62 1533,1101.24 1530.41,1098.84 1527.82,1096.43 1525.24,1094 1522.67,1091.56 1520.1,1089.1 1517.54,1086.64 1514.99,1084.15 1512.44,1081.66 1509.9,1079.15 1507.36,1076.63 1504.83,1074.1 1502.31,1071.55 1499.8,1068.99 1497.29,1066.42 1494.78,1063.83 1492.29,1061.24 1489.8,1058.63 1487.31,1056.01 1484.84,1053.37 1482.37,1050.73 1479.9,1048.07 1477.45,1045.4 1475,1042.72 1472.55,1040.03 1470.12,1037.32 1467.68,1034.61 1465.26,1031.88 1462.84,1029.15 1460.43,1026.4 1458.02,1023.64 1455.63,1020.87 1453.23,1018.1 1450.85,1015.31 1448.47,1012.51 1446.09,1009.7 1443.73,1006.88 1441.36,1004.05 1439.01,1001.21 1436.66,998.363 1434.32,995.505 1431.98,992.638 1429.65,989.762 1427.32,986.877 1425.01,983.983 1422.69,981.08 1420.38,978.168 1418.08,975.248 1415.79,972.32 1413.5,969.383 1411.21,966.439 1408.93,963.486 1406.66,960.525 1404.39,957.557 1402.13,954.581 1399.87,951.597 1397.62,948.606 1395.37,945.608 1393.13,942.603 1390.9,939.59 1388.66,936.571 1386.44,933.545 1384.22,930.513 1382,927.474 1379.79,924.428 1377.58,921.377 1375.38,918.319 1373.18,915.256 1370.98,912.186 1368.79,909.111 1366.61,906.03 1364.43,902.944 1362.25,899.853 1360.08,896.756 1357.91,893.654 1355.74,890.547 1353.58,887.436 1351.42,884.319 1349.27,881.198 1347.12,878.073 1344.97,874.943 1342.83,871.809 1340.69,868.671 1338.55,865.529 1336.42,862.384 1334.29,859.234 1332.16,856.081 1330.03,852.925 1327.91,849.765 1325.79,846.602 1323.67,843.436 1321.56,840.267 1319.44,837.095 1317.33,833.92 1315.22,830.743 1313.12,827.563 1311.01,824.381 1308.91,821.197 1306.81,818.011 1304.71,814.822 1302.61,811.632 1300.52,808.44 1298.42,805.247 1296.33,802.052 1294.23,798.856 1292.14,795.658 1290.05,792.46 1287.96,789.26 1285.87,786.06 1283.78,782.859 1281.7,779.657 1279.61,776.455 1277.52,773.252 1275.43,770.049 1273.35,766.846 "/>
<polyline clip-path="url(#clip532)" style="stroke:#3da44d; stroke-linecap:round; stroke-linejoin:round; stroke-width:4; stroke-opacity:1; fill:none" points="310.702,766.846 311.752,768.447 312.813,770.049 313.886,771.65 314.971,773.251 316.068,774.852 317.177,776.453 318.298,778.053 319.431,779.653 320.576,781.252 321.733,782.851 322.903,784.448 324.084,786.046 325.279,787.642 326.485,789.238 327.704,790.832 328.935,792.426 330.179,794.018 331.436,795.61 332.705,797.2 333.987,798.788 335.281,800.376 336.589,801.961 337.909,803.546 339.242,805.128 340.587,806.709 341.946,808.288 343.318,809.865 344.702,811.44 346.1,813.013 347.511,814.584 348.934,816.153 350.371,817.719 351.822,819.283 353.285,820.844 354.762,822.403 356.252,823.959 357.755,825.512 359.272,827.062 360.802,828.609 362.345,830.153 363.902,831.694 365.473,833.232 367.057,834.766 368.654,836.297 370.266,837.824 371.89,839.348 373.529,840.867 375.181,842.383 376.846,843.895 378.526,845.402 380.219,846.906 381.926,848.405 383.647,849.9 385.381,851.39 387.13,852.875 388.892,854.356 390.668,855.832 392.458,857.303 394.261,858.769 396.079,860.23 397.91,861.685 399.756,863.135 401.615,864.579 403.489,866.018 405.376,867.451 407.277,868.878 409.192,870.299 411.122,871.714 413.065,873.123 415.022,874.525 416.993,875.921 418.978,877.31 420.977,878.693 422.99,880.069 425.017,881.438 427.058,882.799 429.113,884.154 431.182,885.501 433.265,886.841 435.361,888.173 437.472,889.498 439.596,890.815 441.735,892.123 443.887,893.424 446.053,894.717 448.233,896.001 450.427,897.277 452.635,898.545 454.856,899.803 457.092,901.053 459.341,902.294 461.603,903.526 463.88,904.749 466.17,905.963 468.473,907.167 470.791,908.361 473.121,909.546 475.466,910.721 477.824,911.887 480.195,913.042 482.58,914.187 484.978,915.322 487.389,916.446 489.814,917.56 492.252,918.663 494.703,919.756 497.167,920.837 499.645,921.908 502.135,922.967 504.639,924.015 507.156,925.052 509.685,926.077 512.227,927.091 514.782,928.093 517.35,929.083 519.931,930.061 522.524,931.027 525.129,931.981 527.748,932.923 530.378,933.852 533.021,934.768 535.676,935.672 538.344,936.563 541.024,937.442 543.715,938.307 546.419,939.159 549.135,939.998 551.862,940.823 554.602,941.636 557.353,942.434 560.116,943.219 562.89,943.991 565.676,944.748 568.473,945.491 571.281,946.221 574.101,946.936 576.932,947.637 579.774,948.324 582.627,948.996 585.49,949.654 588.365,950.297 591.25,950.925 594.146,951.539 597.052,952.137 599.969,952.721 602.896,953.29 605.834,953.843 608.781,954.381 611.739,954.904 614.706,955.412 617.683,955.904 620.67,956.38 623.667,956.841 626.673,957.286 629.689,957.715 632.714,958.128 635.748,958.526 638.791,958.907 641.844,959.273 644.905,959.622 647.975,959.955 651.054,960.272 654.141,960.573 657.237,960.857 660.341,961.124 663.453,961.376 666.574,961.611 669.702,961.829 672.839,962.03 675.983,962.215 679.135,962.383 682.295,962.535 685.462,962.67 688.637,962.787 691.818,962.888 695.007,962.972 698.203,963.04 701.406,963.09 704.616,963.123 707.832,963.139 711.055,963.138 714.284,963.12 717.52,963.085 720.762,963.033 724.01,962.964 727.264,962.877 730.524,962.774 733.79,962.653 737.061,962.515 740.338,962.36 743.621,962.188 746.909,961.999 750.202,961.792 753.5,961.569 756.803,961.328 760.111,961.07 763.423,960.795 766.741,960.502 770.063,960.193 773.389,959.866 776.72,959.523 780.055,959.162 783.394,958.784 786.737,958.389 790.084,957.978 793.435,957.549 796.789,957.103 800.147,956.641 803.508,956.161 806.873,955.665 810.242,955.151 813.613,954.622 816.987,954.075 820.365,953.511 823.745,952.931 827.128,952.335 830.514,951.722 833.902,951.092 837.292,950.446 840.686,949.783 844.081,949.105 847.479,948.409 850.878,947.698 854.28,946.971 857.684,946.227 861.089,945.467 864.496,944.692 867.905,943.901 871.316,943.093 874.728,942.27 878.141,941.432 881.556,940.577 884.972,939.708 888.389,938.822 891.807,937.922 895.226,937.006 898.646,936.075 902.067,935.129 905.489,934.168 908.912,933.192 912.335,932.201 915.759,931.195 919.183,930.175 922.607,929.14 926.032,928.091 929.458,927.028 932.883,925.95 936.309,924.858 939.735,923.752 943.161,922.632 946.587,921.498 950.013,920.35 953.438,919.189 956.864,918.014 960.289,916.826 963.714,915.624 967.139,914.41 970.564,913.182 973.988,911.941 977.411,910.688 980.834,909.421 984.257,908.143 987.679,906.851 991.1,905.548 994.521,904.232 997.941,902.903 1001.36,901.563 1004.78,900.211 1008.2,898.848 1011.61,897.472 1015.03,896.085 1018.44,894.687 1021.86,893.278 1025.27,891.857 1028.68,890.426 1032.1,888.983 1035.51,887.53 1038.92,886.067 1042.32,884.592 1045.73,883.108 1049.14,881.613 1052.54,880.109 1055.95,878.594 1059.35,877.07 1062.75,875.536 1066.15,873.993 1069.55,872.44 1072.95,870.878 1076.34,869.307 1079.74,867.727 1083.13,866.139 1086.53,864.541 1089.92,862.936 1093.31,861.322 1096.7,859.699 1100.09,858.069 1103.48,856.431 1106.86,854.785 1110.25,853.131 1113.63,851.47 1117.02,849.801 1120.4,848.126 1123.78,846.443 1127.16,844.754 1130.53,843.057 1133.91,841.355 1137.29,839.645 1140.66,837.93 1144.04,836.208 1147.41,834.481 1150.78,832.747 1154.15,831.008 1157.52,829.264 1160.89,827.514 1164.26,825.759 1167.63,823.998 1170.99,822.233 1174.36,820.463 1177.72,818.689 1181.08,816.91 1184.45,815.127 1187.81,813.339 1191.17,811.548 1194.53,809.753 1197.89,807.954 1201.25,806.152 1204.61,804.346 1207.96,802.537 1211.32,800.725 1214.68,798.91 1218.03,797.093 1221.39,795.273 1224.74,793.45 1228.1,791.625 1231.45,789.798 1234.8,787.969 1238.15,786.138 1241.51,784.306 1244.86,782.472 1248.21,780.637 1251.56,778.8 1254.91,776.963 1258.27,775.125 1261.62,773.286 1264.97,771.446 1268.32,769.606 1271.67,767.766 1275.02,765.926 1278.37,764.086 1281.72,762.246 1285.07,760.406 1288.43,758.567 1291.78,756.729 1295.13,754.892 1298.48,753.055 1301.83,751.22 1305.18,749.386 1308.54,747.554 1311.89,745.723 1315.24,743.894 1318.6,742.067 1321.95,740.242 1325.31,738.419 1328.66,736.599 1332.02,734.782 1335.37,732.967 1338.73,731.155 1342.09,729.346 1345.44,727.54 1348.8,725.738 1352.16,723.939 1355.52,722.144 1358.88,720.353 1362.25,718.565 1365.61,716.782 1368.97,715.003 1372.34,713.229 1375.7,711.459 1379.07,709.694 1382.43,707.933 1385.8,706.178 1389.17,704.428 1392.54,702.684 1395.91,700.945 1399.28,699.211 1402.66,697.484 1406.03,695.762 1409.4,694.047 1412.78,692.337 1416.16,690.635 1419.54,688.938 1422.91,687.249 1426.3,685.566 1429.68,683.891 1433.06,682.222 1436.44,680.561 1439.83,678.907 1443.21,677.261 1446.6,675.623 1449.99,673.993 1453.38,672.37 1456.77,670.756 1460.16,669.151 1463.56,667.553 1466.95,665.965 1470.35,664.385 1473.74,662.814 1477.14,661.252 1480.54,659.699 1483.94,658.156 1487.34,656.622 1490.75,655.098 1494.15,653.583 1497.56,652.078 1500.96,650.584 1504.37,649.099 1507.78,647.625 1511.19,646.162 1514.6,644.709 1518.01,643.266 1521.42,641.835 1524.83,640.414 1528.25,639.005 1531.66,637.607 1535.08,636.22 1538.5,634.844 1541.91,633.481 1545.33,632.129 1548.75,630.789 1552.17,629.46 1555.59,628.144 1559.01,626.841 1562.43,625.549 1565.86,624.27 1569.28,623.004 1572.7,621.751 1576.13,620.51 1579.55,619.282 1582.98,618.068 1586.4,616.866 1589.83,615.678 1593.25,614.503 1596.68,613.342 1600.11,612.194 1603.53,611.06 1606.96,609.94 1610.38,608.834 1613.81,607.742 1617.23,606.664 1620.66,605.601 1624.08,604.552 1627.51,603.517 1630.93,602.496 1634.36,601.491 1637.78,600.5 1641.2,599.524 1644.62,598.563 1648.05,597.617 1651.47,596.686 1654.88,595.77 1658.3,594.869 1661.72,593.984 1665.14,593.115 1668.55,592.26 1671.96,591.422 1675.38,590.599 1678.79,589.791 1682.2,589 1685.6,588.224 1689.01,587.465 1692.41,586.721 1695.81,585.994 1699.21,585.283 1702.61,584.587 1706.01,583.909 1709.4,583.246 1712.79,582.6 1716.18,581.97 1719.56,581.357 1722.95,580.761 1726.33,580.181 1729.7,579.617 1733.08,579.07 1736.45,578.541 1739.82,578.027 1743.18,577.531 1746.54,577.051 1749.9,576.589 1753.26,576.143 1756.61,575.714 1759.96,575.302 1763.3,574.908 1766.64,574.53 1769.97,574.169 1773.3,573.826 1776.63,573.499 1779.95,573.19 1783.27,572.897 1786.58,572.622 1789.89,572.364 1793.19,572.123 1796.49,571.9 1799.78,571.693 1803.07,571.504 1806.35,571.332 1809.63,571.177 1812.9,571.039 1816.17,570.918 1819.43,570.814 1822.68,570.728 1825.93,570.659 1829.17,570.607 1832.41,570.572 1835.64,570.554 1838.86,570.553 1842.08,570.569 1845.29,570.602 1848.49,570.652 1851.68,570.72 1854.87,570.804 1858.06,570.905 1861.23,571.022 1864.4,571.157 1867.56,571.308 1870.71,571.477 1873.85,571.662 1876.99,571.863 1880.12,572.081 1883.24,572.316 1886.35,572.567 1889.46,572.835 1892.55,573.119 1895.64,573.42 1898.72,573.737 1901.79,574.07 1904.85,574.419 1907.9,574.785 1910.94,575.166 1913.98,575.564 1917,575.977 1920.02,576.406 1923.02,576.851 1926.02,577.312 1929.01,577.788 1931.99,578.28 1934.95,578.788 1937.91,579.311 1940.86,579.849 1943.8,580.402 1946.72,580.971 1949.64,581.555 1952.55,582.153 1955.44,582.767 1958.33,583.395 1961.2,584.038 1964.07,584.696 1966.92,585.368 1969.76,586.055 1972.59,586.756 1975.41,587.471 1978.22,588.2 1981.02,588.944 1983.8,589.701 1986.58,590.473 1989.34,591.258 1992.09,592.056 1994.83,592.868 1997.56,593.694 2000.27,594.533 2002.98,595.385 2005.67,596.25 2008.35,597.129 2011.02,598.02 2013.67,598.924 2016.31,599.84 2018.94,600.769 2021.56,601.711 2024.17,602.665 2026.76,603.631 2029.34,604.609 2031.91,605.599 2034.46,606.601 2037.01,607.615 2039.54,608.64 2042.05,609.677 2044.56,610.725 2047.05,611.784 2049.52,612.855 2051.99,613.936 2054.44,615.029 2056.88,616.132 2059.3,617.246 2061.71,618.37 2064.11,619.505 2066.5,620.65 2068.87,621.805 2071.23,622.971 2073.57,624.146 2075.9,625.331 2078.22,626.525 2080.52,627.729 2082.81,628.943 2085.09,630.166 2087.35,631.398 2089.6,632.639 2091.84,633.889 2094.06,635.147 2096.26,636.415 2098.46,637.691 2100.64,638.975 2102.8,640.268 2104.96,641.569 2107.1,642.877 2109.22,644.194 2111.33,645.519 2113.43,646.851 2115.51,648.191 2117.58,649.538 2119.63,650.893 2121.67,652.254 2123.7,653.623 2125.71,654.999 2127.71,656.382 2129.7,657.771 2131.67,659.167 2133.63,660.569 2135.57,661.978 2137.5,663.393 2139.41,664.814 2141.32,666.241 2143.2,667.674 2145.08,669.113 2146.94,670.557 2148.78,672.007 2150.61,673.462 2152.43,674.923 2154.23,676.389 2156.02,677.86 2157.8,679.336 2159.56,680.816 2161.31,682.302 2163.05,683.792 2164.77,685.287 2166.47,686.786 2168.17,688.289 2169.85,689.797 2171.51,691.309 2173.16,692.825 2174.8,694.344 2176.43,695.868 2178.04,697.395 2179.64,698.926 2181.22,700.46 2182.79,701.998 2184.35,703.539 2185.89,705.083 2187.42,706.63 2188.94,708.18 2190.44,709.733 2191.93,711.289 2193.41,712.848 2194.87,714.409 2196.32,715.973 2197.76,717.539 2199.18,719.108 2200.59,720.679 2201.99,722.252 2203.37,723.827 2204.75,725.404 2206.1,726.983 2207.45,728.564 2208.78,730.146 2210.1,731.731 2211.41,733.316 2212.7,734.904 2213.99,736.492 2215.26,738.082 2216.51,739.674 2217.76,741.266 2218.99,742.86 2220.21,744.454 2221.41,746.05 2222.61,747.646 2223.79,749.244 2224.96,750.841 2226.12,752.44 2227.26,754.039 2228.39,755.639 2229.52,757.239 2230.62,758.84 2231.72,760.441 2232.81,762.042 2233.88,763.643 2234.94,765.244 2235.99,766.846 "/>
</svg>
